<svg xmlns="http://www.w3.org/2000/svg" xmlns:xlink="http://www.w3.org/1999/xlink" width="315" height="79" fill="none"><path d="M250.85 69.08c0-1.3.205-2.54.616-3.7.434-1.172 1.05-2.184 1.85-3.034.798-.873 1.768-1.563 2.9-2.07s2.442-.758 3.902-.758c.96 0 1.838.092 2.636.276a11.88 11.88 0 0 1 2.328.724l-1.06 4.103a12.8 12.8 0 0 0-1.575-.483c-.57-.138-1.2-.207-1.917-.207-1.506 0-2.635.47-3.4 1.414-.73.942-1.095 2.184-1.095 3.724 0 1.632.342 2.896 1.027 3.792.707.896 1.928 1.345 3.663 1.345.616 0 1.278-.057 1.985-.172s1.358-.3 1.95-.552l.72 4.206c-.593.253-1.335.47-2.225.655s-1.87.276-2.944.276c-1.643 0-3.058-.24-4.244-.724-1.187-.506-2.168-1.184-2.944-2.034-.753-.85-1.312-1.85-1.677-3-.343-1.172-.514-2.436-.514-3.792zm34.63-.035c0 1.425-.206 2.735-.616 3.93-.4 1.172-1.004 2.184-1.78 3.034-.776.827-1.712 1.47-2.807 1.93-1.073.46-2.282.7-3.63.7-1.323 0-2.533-.23-3.628-.7a8.16 8.16 0 0 1-2.773-1.931c-.776-.85-1.38-1.862-1.814-3.034-.433-1.195-.65-2.505-.65-3.93s.217-2.724.65-3.896c.457-1.172 1.073-2.172 1.85-3 .798-.827 1.734-1.47 2.806-1.93 1.096-.46 2.282-.7 3.56-.7 1.3 0 2.488.23 3.56.7 1.096.46 2.03 1.103 2.807 1.93s1.38 1.827 1.814 3 .65 2.47.65 3.896zm-5.203 0c0-1.586-.32-2.827-.96-3.723-.616-.92-1.506-1.38-2.67-1.38s-2.065.46-2.704 1.38c-.64.896-.958 2.138-.958 3.723s.32 2.85.958 3.792c.64.92 1.54 1.38 2.704 1.38s2.054-.46 2.67-1.38c.64-.942.96-2.207.96-3.792zm19.73-.517c0-1.655-.217-2.827-.65-3.517-.4-.7-1.13-1.034-2.157-1.034a7.49 7.49 0 0 0-.993.069l-.992.103v13.997h-5.1V60.633l1.506-.345 1.85-.345a19.11 19.11 0 0 1 2.02-.24 20.11 20.11 0 0 1 2.019-.103c1.3 0 2.35.172 3.15.517.822.322 1.495.713 2.02 1.172a8.71 8.71 0 0 1 2.5-1.24c.958-.3 1.837-.448 2.635-.448 1.438 0 2.613.207 3.526.62.936.4 1.677.954 2.225 1.7s.924 1.6 1.13 2.62.308 2.138.308 3.38v10.24h-5.1v-9.62c0-1.655-.216-2.827-.65-3.517-.4-.7-1.13-1.034-2.156-1.034-.274 0-.662.07-1.164.207-.48.138-.88.3-1.198.517a7.93 7.93 0 0 1 .308 1.69l.068 1.862v9.895h-5.1v-9.62zM59.186 0l.098 1.236v12.3H37.606c-.983 0-1.23.247-1.23 1.236v63.975h-13.42v-65.16H.098C.05 13.3 0 13.102 0 12.904V.692C0 .494.05.297.098.05L59.186 0zm62.554 77.452h-13.403V73.26c-9.066 6.067-18.576 7.45-28.58 3.552-6.06-2.368-10.742-6.462-14.2-11.987-6.85-11-5.617-25.503 3.104-35.27 5.026-5.623 11.333-8.928 18.872-9.767 7.44-.8 14.3 1.036 20.696 5.525 0-1.233.05-2.22 0-3.206-.05-.8.197-1.085 1.034-1.085h11.334c.886 0 1.133.247 1.133 1.135v55.297zm-30.895-1.036c.197-.395.394-.7.542-.986l4.73-9.52c.296-.543.838-1.135 1.43-1.38 7.638-3.354 11.678-12.283 9.116-20.274-2.612-8.188-10.988-13.17-19.217-11.395-7.096 1.48-12.565 7.3-13.255 14.108-.838 7.745 2.907 14.404 9.756 17.56.444.197.887.7 1.133 1.135l5.223 9.816c.148.345.345.592.542.937z" fill="#fff"/><mask id="A" fill="#fff"><use xlink:href="#C" fill-rule="evenodd"/></mask><g fill="#fabe12"><use xlink:href="#C" fill-rule="evenodd"/><path d="M90.6 76.112l1.688-1.073-1.688 1.073zm1.765-.95l-.077-.122-3.375 2.147.064.1 3.388-2.126zm-.078-.123l-.001-.001-3.374 2.148 3.375-2.147zm-1.617 1.185l3.388-2.126-.004-.007-.004-.007-3.38 2.14zm.14.23l-3.474 1.983 3.71 6.498 3.343-6.694-3.58-1.787zm.264-.487l-3.468-1.993 3.468 1.993zm.002-.004l-3.468-1.992 3.468 1.992zm.006-.01l-3.467-1.995 3.467 1.995zm.037-.064l-3.465-1.998-.001.002 3.466 1.997zm.1-.177l3.484 1.965.002-.003-3.486-1.962zm.002-.003l-3.485-1.964-.001.002 3.486 1.962zm.13-.242l3.578 1.787-3.578-1.787zm.268-.538L95.2 76.7l-3.582-1.78zm.094-.2L88.13 72.96l3.583 1.778zm.352-.71l3.587 1.77-3.587-1.77zm1.043-2.12l-3.583-1.78-.004.008-.004.008 3.59 1.762zm0-.001l3.583 1.78.004-.008.004-.008-3.59-1.762zm.001-.001l-3.583-1.78-.004.008-.004.008 3.59 1.762zm0-.001l3.583 1.78.004-.008.004-.008-3.59-1.762zm2.972-5.958l-3.512-1.914-.022.04-.02.04 3.556 1.832zm1.43-1.38l1.54 3.692.034-.014.034-.015-1.608-3.662zm9.116-20.274l-3.81 1.215.002.006 3.81-1.22zM87.41 32.897l.817 3.916.014-.003.014-.003-.844-3.9zM74.154 47.005l3.977.43.001-.013.001-.014-3.98-.403zm9.756 17.56l-1.674 3.633.024.01.024.01 1.626-3.655zm1.133 1.135l3.513-1.914-.007-.014-.008-.014-3.498 1.94zm3.893 7.3l3.538-1.867L88.937 73zm.56 1.063L85.96 75.93l3.537-1.868zm.336.637l3.536-1.87-3.536 1.87zm.337.636l3.537-1.868-.002-.004-3.535 1.872zm0 .001l-3.537 1.868.002.004 3.535-1.872zm.066.125l-3.535 1.872 3.535-1.872zm0 .001l3.535-1.872-3.535 1.872zm.03.055l3.677-1.574-.065-.152-.078-.146-3.535 1.873zm.332.594l3.38-2.14-.004-.007L90.6 76.11zm.465-5.224l-3.59-1.762 3.59 1.762zm-.317.645L87.21 73.4l3.666 6.947 3.462-7.05-3.59-1.763zm.32-.655l3.59 1.762-3.59-1.762zm2.987-5.99L90.5 63.057l3.556 1.832zm.012-.024l-3.513-1.914-.022.04-.02.04 3.556 1.832zm.013-.024l-3.513-1.914 3.513 1.914zm2.532-2.39l1.563 3.682.025-.01.025-.01-1.613-3.66zm7.84-17.454l3.81-1.22v-.001l-3.81 1.222zm-.001-.003l-3.81 1.215.002.007 3.81-1.222zm-16.566-9.85l-.844-3.9.844 3.9zm-.008.002l.817 3.916.014-.003.013-.003-.844-3.9zm-.008.002l.817 3.916-.817-3.916zm-11.447 12.09l-3.98-.403 3.98.403zm-.001.008l3.977.43.003-.027-3.98-.403zm-.001.008l-3.977-.43 3.977.43zM84.85 62.47l-1.677 3.63.016.007.016.007 1.646-3.646zm2.186 2.108l3.498-1.94-3.498 1.94zm.004.008l3.512-1.914-.007-.014-.007-.013-3.498 1.94zm.004.008l3.512-1.914-3.512 1.914zm.238 13.755l.053.087 6.948-3.966-.224-.373-6.776 4.252zm7.105-.11l.154-.28-6.937-3.986-.375.692 7.157 3.575zm.153-.28l-6.933-3.99 6.933 3.99zm.003-.006l-6.93-3.998 6.93 3.998zm.003-.006l.037-.064-6.932-3.994-.037.064 6.932 3.994zm.036-.063l.12-.2-6.968-3.93-.082.144 6.93 3.997zm.122-.213l-6.97-3.928 6.97 3.928zm.001-.001l.224-.42-7.157-3.575-.036.066 6.97 3.928zm.224-.42l.27-.545-7.164-3.56-.264.53 7.157 3.575zm.27-.545l.096-.192-7.166-3.556-.093.188L95.2 76.7zm.096-.192l.355-.718-7.173-3.542-.348.704 7.166 3.556zm.355-.718l1.047-2.13-7.182-3.524-1.04 2.112 7.173 3.542zm1.048-2.13v-.001l-7.182-3.525v.001L96.7 73.67zm.001-.002l2.937-5.888-7.112-3.663-3.007 6.027 7.182 3.524zm2.893-5.806c-.038.07-.06.092-.08.11s-.052.05-.116.096-.177.118-.35.19l-3.08-7.383c-1.685.703-2.822 2.096-3.4 3.16l7.025 3.828zm-.475.367c9.514-4.178 14.505-15.216 11.317-25.158l-7.618 2.443c1.937 6.04-1.154 12.86-6.915 15.4l3.217 7.325zm11.32-25.152C107.223 33 96.884 26.76 86.565 28.987l1.688 7.82c6.14-1.325 12.553 2.4 14.563 8.7l7.622-2.43zM86.592 28.98c-8.664 1.807-15.538 8.94-16.418 17.62l7.96.806c.5-4.935 4.565-9.443 10.092-10.596l-1.633-7.83zM70.177 46.575c-1.017 9.407 3.607 17.728 12.06 21.624l3.35-7.265c-5.247-2.418-8.112-7.416-7.454-13.498l-7.954-.86zM82.284 68.22c-.22-.098-.367-.198-.446-.258a1.34 1.34 0 0 1-.16-.139c-.04-.042-.08-.1-.132-.182l6.995-3.882c-.5-.882-1.488-2.173-3.005-2.848l-3.252 7.31zm-.753-.606l3.868 7.252 7.075-3.733-3.92-7.347-7.025 3.828zm3.868 7.252l.56 1.064 7.074-3.736-.56-1.06-7.075 3.733zm.56 1.064l.337.638 7.073-3.74-.335-.635-7.074 3.736zm.337.638l.338.638 7.07-3.743-.335-.634-7.073 3.74zm.335.634l7.075-3.735-7.075 3.735zm.003.005l.066.125 7.07-3.744-.066-.124-7.07 3.743zm.067.126l7.07-3.744-7.07 3.744zm0 .001l.03.055 7.07-3.745-.03-.055-7.07 3.744zm-.113-.243c.24.562.53 1 .634 1.167l6.75-4.293-.04-.062-.027-.044-.02-.032c.001.001.008.013.018.034s.024.05.038.082L86.59 77.09zm.63 1.16l.07.113 6.76-4.28-.07-.113-6.76 4.28zm.253-9.126l-.316.644 7.18 3.526.317-.646-7.182-3.524zm.005-.01l-.005.01 7.182 3.525.005-.01-7.182-3.525zm3.022-6.058l-3.022 6.058 7.182 3.524 2.952-5.92-7.112-3.663zm.012-.024l-.012.024 7.112 3.664.012-.024-7.112-3.664zm.056-.105l-.013.023 7.025 3.827.013-.023-7.025-3.827zm4.482-4.157c-2.282.97-3.744 2.804-4.48 4.157l7.025 3.828a1.95 1.95 0 0 1 .312-.412c.142-.143.243-.197.27-.21L95.05 58.77zm5.596-12.55c1.572 4.904-.958 10.507-5.645 12.573l3.226 7.32c8.436-3.717 12.86-13.535 10.038-22.336l-7.618 2.443zm-.001-.002l.002.003 7.616-2.448-7.618 2.445zM88.73 39.054c4.963-1.07 10.25 1.95 11.91 7.156l7.622-2.43c-2.866-8.986-12.083-14.517-21.22-12.545l1.688 7.82zm-.008.002l.008-.002-1.688-7.82-.008.002 1.688 7.82zm-.035.007l.008-.002-1.633-7.832-.008.002 1.633 7.83zm-8.284 8.578c.39-3.854 3.648-7.61 8.284-8.578l-1.633-7.83c-7.782 1.623-13.84 8.013-14.6 15.603l7.96.807zm-.001.008l.001-.008-7.96-.806v.008l7.96.806zm-.004.035v-.008l-7.954-.86-.001.008 7.954.86zm6.128 11.156c-4.332-2-6.68-6.042-6.128-11.156l-7.954-.86c-.912 8.437 3.195 15.8 10.728 19.28l3.354-7.263zm4.006 3.798c-.626-1.128-1.93-2.86-4.037-3.812l-3.29 7.292c-.047-.02 0-.01.107.1.048.05.095.107.14.166a1.38 1.38 0 0 1 .088.136l6.995-3.882zm.004.008l-.004-.008-6.995 3.88.004.008 6.995-3.88zm.02.035l-.004-.008-7.025 3.828.004.008 7.025-3.828zm3.728 6.985l-3.728-6.984-7.025 3.828 3.677 6.89 7.075-3.734zm2.407 4.02l-7.166-3.557 7.166 3.557zm.001-.002l-7.166-3.557 7.166 3.557z" mask="url(#A)"/></g><path d="M191.353 78.708h-16.208c-.737 0-1.18-.2-1.67-.797l-11.542-15.498c-.197-.3-.442-.548-.737-.897l-.688.847-11.6 15.598c-.442.548-.835.797-1.57.797-5-.05-10.07 0-15.08 0-.295 0-.6-.05-1.18-.05l21.464-26.9-23.674-29.75c.6-.05.933-.1 1.277-.1h14.882c.786 0 1.277.25 1.72.897l13.85 18.388c.147.2.343.4.6.698l5.206-6.877 9.283-12.3c.295-.35.835-.747 1.228-.747l15.815-.05c.147 0 .295.05.6.1-.294.4-.5.747-.736 1.046L170.33 51c-.442.598-.5.897 0 1.495l20.1 25.165c.393.25.6.548.933 1.047zm8.4.05V21.95h14.176v56.8h-14.176z" fill="#fff"/><g fill="#fabe12"><path d="M228.773 27.58h14.262V71.6a7.13 7.13 0 0 1-14.26 0V27.58zM294.044.575c3.967 0 7.183 3.216 7.183 7.183s-3.216 7.183-7.183 7.183h-58.1c-3.967 0-7.182-3.216-7.182-7.183s3.215-7.183 7.182-7.183h58.1z"/><path d="M268.942 27.58c3.967 0 7.183 3.216 7.183 7.183s-3.216 7.183-7.183 7.183h-32.987c-3.966 0-7.182-3.216-7.182-7.183s3.216-7.183 7.182-7.183h32.987z"/></g><path d="M240.183 72.113c0 2.38-1.916 4.3-4.28 4.3s-4.28-1.93-4.28-4.3 1.916-4.3 4.28-4.3 4.28 1.93 4.28 4.3z" fill="#000606"/><defs ><path id="C" d="M90.67 76.224l.14.23.264-.487.045-.078.1-.177.132-.245.362-.728.352-.71 1.044-2.124 2.972-5.958c.296-.543.838-1.135 1.43-1.38 7.638-3.354 11.678-12.283 9.116-20.274-2.612-8.19-10.99-13.17-19.217-11.395-7.096 1.48-12.565 7.3-13.255 14.108-.838 7.745 2.907 14.404 9.756 17.56.444.197.887.69 1.133 1.135l4.454 8.362.673 1.273.096.182c.095.22.2.402.332.594l.07.113zm.077-4.692l.32-.655 3.012-6.036c.457-.838 1.33-1.88 2.532-2.39 6.56-2.89 10.038-10.602 7.84-17.454l-.001-.003c-2.263-7.096-9.516-11.372-16.566-9.85l-.008.002-.008.002c-6.21 1.295-10.867 6.37-11.447 12.09l-.001.008-.001.008c-.733 6.775 2.496 12.48 8.428 15.218 1.045.472 1.8 1.414 2.186 2.108l.01.016 3.703 6.937z"/></defs></svg>