<svg width="175" height="66" viewBox="0 0 175 66" fill="none" xmlns="http://www.w3.org/2000/svg">
<path d="M34.3841 0C34.4127 0.230302 34.4412 0.489391 34.4412 0.719693C34.4412 2.84998 34.4412 4.98027 34.4412 7.11057C34.4412 7.34087 34.4412 7.59996 34.4412 7.88783C34.1271 7.88783 33.8701 7.88783 33.6416 7.88783C29.7006 7.88783 25.7595 7.88783 21.847 7.88783C21.2759 7.88783 21.1331 8.03177 21.1331 8.60753C21.1616 20.7559 21.1331 32.9044 21.1331 45.0528C21.1331 45.3119 21.1331 45.571 21.1331 45.8588C18.5057 45.8588 15.9641 45.8588 13.3367 45.8588C13.3367 33.221 13.3367 20.5832 13.3367 7.91662C8.85305 7.91662 4.48364 7.91662 0.0571165 7.91662C0.0285582 7.7439 0 7.62874 0 7.51359C0 5.153 0 2.76362 0 0.403028C0 0.287877 0.0285582 0.172726 0.0571165 0.0287877C11.509 -2.14485e-09 22.9608 0 34.3841 0Z" fill="white"/>
<path d="M70.7251 45.0988C68.0629 45.0988 65.5438 45.0988 62.9388 45.0988C62.9388 44.3233 62.9388 43.5478 62.9388 42.6574C57.6716 46.1903 52.1467 46.9946 46.3356 44.7254C42.8146 43.3467 40.0951 40.9627 38.0913 37.7458C34.1122 31.3406 34.8279 22.896 39.8947 17.2089C42.8146 13.9345 46.4788 12.01 50.8586 11.5217C55.1811 11.0622 59.1601 12.1249 62.8815 14.7387C62.8815 14.0206 62.9102 13.4462 62.8815 12.8717C62.8529 12.4121 62.996 12.2398 63.4827 12.2398C65.6869 12.2685 67.8625 12.2685 70.0667 12.2398C70.582 12.2398 70.7251 12.3834 70.7251 12.9004C70.6965 16.4908 70.7251 20.0812 70.7251 23.6715C70.7251 30.5363 70.7251 37.3724 70.7251 44.2372C70.7251 44.4957 70.7251 44.7829 70.7251 45.0988ZM52.7765 44.4957C52.891 44.2659 53.0055 44.0935 53.0914 43.9212C54.0074 42.0829 54.8948 40.2159 55.8395 38.3777C56.0113 38.0617 56.3261 37.7171 56.6697 37.5734C61.1067 35.6203 63.4541 30.4214 61.9655 25.7683C60.4483 21.0003 55.5819 18.0993 50.8013 19.1333C46.6791 19.995 43.5016 23.3843 43.1009 27.3481C42.6142 31.8576 44.7898 35.7352 48.7688 37.5734C49.0265 37.6883 49.2841 37.9756 49.4272 38.2341C50.4578 40.1298 51.4597 42.0542 52.4616 43.9499C52.5475 44.151 52.662 44.2946 52.7765 44.4957Z" fill="white"/>
<mask id="path-3-inside-1_1_78" fill="white">
<path fill-rule="evenodd" clip-rule="evenodd" d="M52.6748 44.3834C52.7014 44.4259 52.7284 44.4701 52.7554 44.5174C52.8075 44.4129 52.8596 44.3202 52.909 44.234C52.9094 44.2333 52.9098 44.2326 52.9102 44.2319C52.9113 44.23 52.9124 44.2281 52.9135 44.2262L52.935 44.1886C52.9553 44.1535 52.9749 44.1193 52.9939 44.0857C52.9942 44.0851 52.9945 44.0846 52.9948 44.084C53.0217 44.0362 53.047 43.9896 53.0702 43.943C53.1222 43.8387 53.1741 43.7343 53.2259 43.6298C53.2442 43.5929 53.2625 43.556 53.2807 43.5191C53.349 43.3812 53.4171 43.2432 53.4852 43.1051C53.6876 42.6942 53.8893 42.2823 54.0912 41.87L54.0914 41.8695L54.0918 41.8689L54.0919 41.8685C54.659 40.7103 55.2275 39.5492 55.8184 38.3994C55.9901 38.0835 56.305 37.7388 56.6485 37.5952C61.0856 35.642 63.4329 30.4432 61.9444 25.7901C60.4272 21.0221 55.5607 18.121 50.7802 19.1551C46.658 20.0167 43.4805 23.4061 43.0797 27.3698C42.5931 31.8793 44.7687 35.7569 48.7477 37.5952C49.0053 37.7101 49.263 37.9973 49.4061 38.2558C50.1719 39.6646 50.922 41.0892 51.6679 42.5062C51.7766 42.7126 51.8852 42.9188 51.9937 43.1248C52.0588 43.2485 52.124 43.372 52.1891 43.4955C52.2542 43.619 52.3194 43.7425 52.3846 43.8658C52.3846 43.866 52.3847 43.8662 52.3848 43.8663C52.3976 43.8906 52.4104 43.9148 52.4232 43.939C52.4233 43.9392 52.4234 43.9394 52.4235 43.9396C52.4292 43.9503 52.4348 43.961 52.4405 43.9717C52.4955 44.1006 52.5623 44.2058 52.6334 44.3178L52.6748 44.3834ZM52.7193 41.6515C52.7806 41.5265 52.8419 41.4012 52.9033 41.2758L52.9061 41.2701C53.4713 40.1156 54.0447 38.9447 54.6415 37.7831L54.6487 37.7693L54.6561 37.7556C54.9214 37.2676 55.4294 36.6616 56.1272 36.3646C59.9391 34.6812 61.9592 30.1914 60.6828 26.2013L60.6821 26.1994C59.3673 22.0675 55.1539 19.5777 51.0579 20.4637L51.0534 20.4647L51.049 20.4656C47.4416 21.2197 44.7355 24.174 44.3986 27.5057L44.3982 27.5102L44.3977 27.5148C43.9719 31.4598 45.8474 34.7807 49.2936 36.3756C49.901 36.6503 50.3397 37.1989 50.5633 37.6028L50.5659 37.6074L50.5683 37.6119C51.2981 38.9543 52.0129 40.3097 52.7193 41.6515Z"/>
</mask>
<path fill-rule="evenodd" clip-rule="evenodd" d="M52.6748 44.3834C52.7014 44.4259 52.7284 44.4701 52.7554 44.5174C52.8075 44.4129 52.8596 44.3202 52.909 44.234C52.9094 44.2333 52.9098 44.2326 52.9102 44.2319C52.9113 44.23 52.9124 44.2281 52.9135 44.2262L52.935 44.1886C52.9553 44.1535 52.9749 44.1193 52.9939 44.0857C52.9942 44.0851 52.9945 44.0846 52.9948 44.084C53.0217 44.0362 53.047 43.9896 53.0702 43.943C53.1222 43.8387 53.1741 43.7343 53.2259 43.6298C53.2442 43.5929 53.2625 43.556 53.2807 43.5191C53.349 43.3812 53.4171 43.2432 53.4852 43.1051C53.6876 42.6942 53.8893 42.2823 54.0912 41.87L54.0914 41.8695L54.0918 41.8689L54.0919 41.8685C54.659 40.7103 55.2275 39.5492 55.8184 38.3994C55.9901 38.0835 56.305 37.7388 56.6485 37.5952C61.0856 35.642 63.4329 30.4432 61.9444 25.7901C60.4272 21.0221 55.5607 18.121 50.7802 19.1551C46.658 20.0167 43.4805 23.4061 43.0797 27.3698C42.5931 31.8793 44.7687 35.7569 48.7477 37.5952C49.0053 37.7101 49.263 37.9973 49.4061 38.2558C50.1719 39.6646 50.922 41.0892 51.6679 42.5062C51.7766 42.7126 51.8852 42.9188 51.9937 43.1248C52.0588 43.2485 52.124 43.372 52.1891 43.4955C52.2542 43.619 52.3194 43.7425 52.3846 43.8658C52.3846 43.866 52.3847 43.8662 52.3848 43.8663C52.3976 43.8906 52.4104 43.9148 52.4232 43.939C52.4233 43.9392 52.4234 43.9394 52.4235 43.9396C52.4292 43.9503 52.4348 43.961 52.4405 43.9717C52.4955 44.1006 52.5623 44.2058 52.6334 44.3178L52.6748 44.3834ZM52.7193 41.6515C52.7806 41.5265 52.8419 41.4012 52.9033 41.2758L52.9061 41.2701C53.4713 40.1156 54.0447 38.9447 54.6415 37.7831L54.6487 37.7693L54.6561 37.7556C54.9214 37.2676 55.4294 36.6616 56.1272 36.3646C59.9391 34.6812 61.9592 30.1914 60.6828 26.2013L60.6821 26.1994C59.3673 22.0675 55.1539 19.5777 51.0579 20.4637L51.0534 20.4647L51.049 20.4656C47.4416 21.2197 44.7355 24.174 44.3986 27.5057L44.3982 27.5102L44.3977 27.5148C43.9719 31.4598 45.8474 34.7807 49.2936 36.3756C49.901 36.6503 50.3397 37.1989 50.5633 37.6028L50.5659 37.6074L50.5683 37.6119C51.2981 38.9543 52.0129 40.3097 52.7193 41.6515Z" fill="#FABE12"/>
<path d="M52.6337 44.3183L54.3224 43.2468L54.3222 43.2464L52.6337 44.3183ZM54.3701 43.3222C54.3525 43.2941 54.3354 43.2672 54.3224 43.2468L50.945 45.3898C50.9591 45.4121 50.9695 45.4286 50.9796 45.4446L54.3701 43.3222ZM54.3222 43.2464L54.3219 43.2459L50.9449 45.3896L50.9452 45.3902L54.3222 43.2464ZM52.6748 44.3834L56.0652 42.2609L56.061 42.254L56.0566 42.2472L52.6748 44.3834ZM52.7554 44.5174L49.2795 46.4969L52.9908 53.0135L56.3355 46.3014L52.7554 44.5174ZM52.909 44.234L49.4399 42.2427L49.4387 42.2447L52.909 44.234ZM52.9102 44.2319L49.4399 42.2426L49.4398 42.2429L52.9102 44.2319ZM52.9135 44.2262L49.4456 42.2328L49.4447 42.2344L52.9135 44.2262ZM52.935 44.1886L49.468 42.1937L49.4671 42.1952L52.935 44.1886ZM52.9939 44.0857L56.4798 46.0474L56.4813 46.0447L52.9939 44.0857ZM52.9948 44.084L49.5083 42.1234L49.5073 42.125L52.9948 44.084ZM53.0702 43.943L56.6503 45.727L56.6504 45.727L53.0702 43.943ZM53.2259 43.6298L56.8095 45.4068L56.8095 45.4068L53.2259 43.6298ZM53.2807 43.5191L49.696 41.7443L49.696 41.7443L53.2807 43.5191ZM53.4852 43.1051L57.0733 44.873L57.0733 44.8729L53.4852 43.1051ZM54.0912 41.87L50.5068 40.0946L50.5027 40.1028L50.4987 40.111L54.0912 41.87ZM54.0914 41.8695L57.6758 43.6449L57.6799 43.6368L57.6839 43.6286L54.0914 41.8695ZM54.0918 41.8689L50.5073 40.0935L50.5033 40.1016L50.4993 40.1097L54.0918 41.8689ZM54.0919 41.8685L57.6763 43.6439L57.6804 43.6357L57.6844 43.6275L54.0919 41.8685ZM55.8184 38.3994L52.3041 36.489L52.2819 36.5298L52.2606 36.5712L55.8184 38.3994ZM56.6485 37.5952L58.1914 41.2856L58.2259 41.2712L58.2601 41.2562L56.6485 37.5952ZM61.9444 25.7901L58.1327 27.0029L58.1346 27.0088L61.9444 25.7901ZM50.7802 19.1551L51.5986 23.0704L51.6122 23.0676L51.6258 23.0647L50.7802 19.1551ZM43.0797 27.3698L47.0566 27.799L47.0581 27.7856L47.0594 27.7722L43.0797 27.3698ZM48.7477 37.5952L47.0701 41.2264L47.0943 41.2376L47.1186 41.2484L48.7477 37.5952ZM49.4061 38.2558L52.9204 36.3454L52.913 36.3318L52.9055 36.3182L49.4061 38.2558ZM51.6679 42.5062L55.2074 40.6428L55.2074 40.6427L51.6679 42.5062ZM51.9937 43.1248L48.4548 44.9892L48.4548 44.9892L51.9937 43.1248ZM52.1891 43.4955L55.7272 41.6295L55.7272 41.6295L52.1891 43.4955ZM52.3846 43.8658L55.9236 42.0017L55.9214 41.9976L52.3846 43.8658ZM52.3848 43.8663L48.8458 45.7305L48.8479 45.7346L52.3848 43.8663ZM52.4232 43.939L48.8866 45.8078L48.8867 45.8081L52.4232 43.939ZM52.4235 43.9396L55.9601 42.0707L55.96 42.0705L52.4235 43.9396ZM52.4405 43.9717L56.119 42.4005L56.0541 42.2485L55.9768 42.1024L52.4405 43.9717ZM52.6334 44.3178L56.0152 42.1815L56.0107 42.1745L52.6334 44.3178ZM52.9033 41.2758L49.3108 39.5167L49.3108 39.5169L52.9033 41.2758ZM52.7193 41.6515L49.1799 43.515L52.8478 50.4813L56.3114 43.4113L52.7193 41.6515ZM52.9061 41.2701L56.4985 43.0292L56.4986 43.0291L52.9061 41.2701ZM54.6415 37.7831L51.0839 35.9546L51.0838 35.9549L54.6415 37.7831ZM54.6487 37.7693L51.1343 35.859L51.1122 35.8996L51.0911 35.9407L54.6487 37.7693ZM54.6561 37.7556L51.1418 35.8451L51.1417 35.8453L54.6561 37.7556ZM56.1272 36.3646L57.6935 40.0452L57.7184 40.0346L57.7431 40.0237L56.1272 36.3646ZM60.6828 26.2013L64.4926 24.9826L64.4922 24.9815L60.6828 26.2013ZM60.6821 26.1994L56.8704 27.4122L56.8727 27.4192L60.6821 26.1994ZM51.0579 20.4637L50.2123 16.5541L50.2123 16.5541L51.0579 20.4637ZM51.0534 20.4647L51.8719 24.38L51.8855 24.3772L51.8991 24.3742L51.0534 20.4647ZM51.049 20.4656L51.8674 24.381L51.8675 24.381L51.049 20.4656ZM44.3986 27.5057L40.4189 27.1033L40.4189 27.1034L44.3986 27.5057ZM44.3982 27.5102L48.3751 27.9395L48.3765 27.926L48.3779 27.9125L44.3982 27.5102ZM44.3977 27.5148L40.4208 27.0855L40.4208 27.0856L44.3977 27.5148ZM49.2936 36.3756L47.6137 40.0057L47.6293 40.0129L47.6449 40.02L49.2936 36.3756ZM50.5633 37.6028L54.0629 35.6655L54.0628 35.6653L50.5633 37.6028ZM50.5659 37.6074L54.0801 35.6969L54.0728 35.6834L54.0654 35.67L50.5659 37.6074ZM50.5683 37.6119L54.0826 35.7015L54.0826 35.7014L50.5683 37.6119ZM49.2844 46.5059C49.2897 46.5143 49.291 46.5166 49.29 46.515C49.2889 46.5131 49.2851 46.5068 49.2795 46.4969L56.2312 42.5379C56.1665 42.4242 56.1077 42.3287 56.0652 42.2609L49.2844 46.5059ZM56.3355 46.3014C56.3346 46.3032 56.3403 46.2912 56.3792 46.2234L49.4387 42.2447C49.3788 42.3492 49.2803 42.5225 49.1752 42.7334L56.3355 46.3014ZM56.3781 46.2254C56.3791 46.2236 56.3799 46.2221 56.3803 46.2214C56.3804 46.2212 56.3805 46.2211 56.3806 46.221C56.3807 46.2208 56.3807 46.2208 56.3807 46.2207C56.3808 46.2206 56.3807 46.2207 56.3806 46.2209L49.4398 42.2429L49.4399 42.2427L56.3781 46.2254ZM56.3805 46.2212C56.3811 46.22 56.3817 46.2189 56.3823 46.218L49.4447 42.2344C49.443 42.2372 49.4414 42.24 49.4399 42.2426L56.3805 46.2212ZM56.3814 46.2196L56.403 46.182L49.4671 42.1952L49.4456 42.2328L56.3814 46.2196ZM56.402 46.1836C56.4205 46.1516 56.4499 46.1006 56.4798 46.0474L49.5079 42.124C49.5 42.138 49.4901 42.1554 49.468 42.1937L56.402 46.1836ZM56.4813 46.0447C56.4804 46.0463 56.4796 46.0478 56.4799 46.0472C56.4799 46.0471 56.4803 46.0466 56.4806 46.0459C56.481 46.0452 56.4816 46.0442 56.4823 46.043L49.5073 42.125C49.5083 42.1233 49.5091 42.1219 49.5088 42.1225C49.5087 42.1226 49.5084 42.1231 49.508 42.1238C49.5077 42.1244 49.5071 42.1255 49.5064 42.1267L56.4813 46.0447ZM56.4813 46.0446C56.5249 45.9671 56.5858 45.8566 56.6503 45.727L49.4902 42.1589C49.4998 42.1395 49.5068 42.1263 49.5098 42.1208C49.5127 42.1154 49.5127 42.1154 49.5083 42.1234L56.4813 46.0446ZM56.6504 45.727C56.7036 45.6201 56.7567 45.5134 56.8095 45.4068L49.6423 41.8528C49.5915 41.9551 49.5408 42.0572 49.4901 42.1589L56.6504 45.727ZM56.8095 45.4068C56.8282 45.3692 56.8468 45.3315 56.8655 45.2939L49.696 41.7443C49.6781 41.7805 49.6602 41.8166 49.6423 41.8528L56.8095 45.4068ZM56.8655 45.2939C56.935 45.1534 57.0043 45.013 57.0733 44.873L49.8971 41.3373C49.83 41.4734 49.763 41.6091 49.696 41.7443L56.8655 45.2939ZM57.0733 44.8729C57.2783 44.4568 57.4822 44.0405 57.6837 43.629L50.4987 40.111C50.2965 40.5241 50.097 40.9315 49.897 41.3373L57.0733 44.8729ZM57.6839 43.6286L57.6842 43.628L50.4993 40.1097L50.499 40.1104L57.6839 43.6286ZM57.6844 43.6275C58.2543 42.4635 58.8059 41.3373 59.3761 40.2277L52.2606 36.5712C51.6491 37.7612 51.0637 38.9571 50.4994 40.1096L57.6844 43.6275ZM59.3327 40.3099C59.2335 40.4922 59.1245 40.6337 59.0022 40.7563C58.892 40.8669 58.6337 41.1008 58.1914 41.2856L55.1056 33.9047C53.6674 34.506 52.7583 35.6535 52.3041 36.489L59.3327 40.3099ZM58.2601 41.2562C64.5758 38.476 67.8646 31.1682 65.7542 24.5713L58.1346 27.0088C59.0013 29.7181 57.5953 32.808 55.037 33.9342L58.2601 41.2562ZM65.756 24.5772C63.6395 17.9256 56.813 13.7577 49.9345 15.2455L51.6258 23.0647C54.3085 22.4844 57.2148 24.1185 58.1327 27.0029L65.756 24.5772ZM49.9617 15.2397C44.2663 16.4302 39.6895 21.1367 39.1 26.9674L47.0594 27.7722C47.2714 25.6754 49.0497 23.6033 51.5986 23.0704L49.9617 15.2397ZM39.1028 26.9406C38.4374 33.1063 41.4872 38.6472 47.0701 41.2264L50.4253 33.964C48.0501 32.8667 46.7487 30.6524 47.0566 27.799L39.1028 26.9406ZM47.1186 41.2484C46.6251 41.0283 46.3448 40.7561 46.2436 40.6514C46.1202 40.5238 46.0091 40.3783 45.9067 40.1934L52.9055 36.3182C52.5202 35.6224 51.7086 34.5359 50.3768 33.942L47.1186 41.2484ZM45.8918 40.1662C46.6428 41.5477 47.3804 42.9487 48.1285 44.3696L55.2074 40.6427C54.4635 39.2298 53.7011 37.7815 52.9204 36.3454L45.8918 40.1662ZM48.1285 44.3696C48.2371 44.5759 48.3459 44.7826 48.4548 44.9892L55.5326 41.2604C55.4244 41.055 55.3161 40.8492 55.2074 40.6428L48.1285 44.3696ZM48.4548 44.9892C48.5201 45.1133 48.5855 45.2374 48.651 45.3615L55.7272 41.6295C55.6624 41.5067 55.5976 41.3837 55.5326 41.2604L48.4548 44.9892ZM48.651 45.3615C48.7165 45.4857 48.7821 45.6099 48.8477 45.7341L55.9214 41.9976C55.8567 41.8751 55.792 41.7524 55.7272 41.6295L48.651 45.3615ZM48.8455 45.73L48.8458 45.7305L55.9239 42.0022L55.9236 42.0017L48.8455 45.73ZM48.8479 45.7346C48.8608 45.759 48.8737 45.7835 48.8866 45.8078L55.9598 42.0701C55.9471 42.0461 55.9344 42.0221 55.9217 41.9981L48.8479 45.7346ZM48.8867 45.8081L48.8871 45.8087L55.96 42.0705L55.9596 42.0699L48.8867 45.8081ZM48.887 45.8085C48.8925 45.819 48.8983 45.83 48.9041 45.841L55.9768 42.1024C55.9713 42.0919 55.9658 42.0816 55.9601 42.0707L48.887 45.8085ZM48.762 45.5429C48.9624 46.0121 49.2018 46.3756 49.256 46.461L56.0107 42.1745C55.9909 42.1433 55.9852 42.1342 55.9814 42.1281C55.9791 42.1244 55.9862 42.1357 55.998 42.1563C56.0237 42.201 56.0701 42.2861 56.119 42.4005L48.762 45.5429ZM49.2516 46.454L49.293 46.5196L56.0566 42.2472L56.0152 42.1815L49.2516 46.454ZM49.3108 39.5169C49.2493 39.6424 49.1882 39.7672 49.1272 39.8917L56.3114 43.4113C56.3729 43.2858 56.4344 43.1601 56.4958 43.0348L49.3108 39.5169ZM49.3136 39.511L49.3108 39.5167L56.4957 43.035L56.4985 43.0292L49.3136 39.511ZM51.0838 35.9549C50.4663 37.1566 49.8761 38.3623 49.3136 39.5112L56.4986 43.0291C57.0666 41.8689 57.623 40.7327 58.1993 39.6114L51.0838 35.9549ZM51.0911 35.9407L51.0839 35.9546L58.1991 39.6117L58.2063 39.5978L51.0911 35.9407ZM51.1417 35.8453L51.1343 35.859L58.1631 39.6795L58.1705 39.6658L51.1417 35.8453ZM54.5609 32.684C52.7815 33.4413 51.6866 34.8431 51.1418 35.8451L58.1704 39.666C58.1341 39.7327 58.1058 39.7686 58.0706 39.8042C58.0346 39.8404 57.9177 39.9498 57.6935 40.0452L54.5609 32.684ZM56.873 27.4201C57.5282 29.4682 56.447 31.8507 54.5113 32.7055L57.7431 40.0237C63.4313 37.5118 66.3902 30.9145 64.4926 24.9826L56.873 27.4201ZM56.8727 27.4192L56.8733 27.4212L64.4922 24.9815L64.4916 24.9795L56.8727 27.4192ZM51.9035 24.3733C53.9039 23.9406 56.1557 25.1662 56.8704 27.4122L64.4938 24.9865C62.579 18.9687 56.4039 15.2149 50.2123 16.5541L51.9035 24.3733ZM51.8991 24.3742L51.9036 24.3733L50.2123 16.5541L50.2078 16.5551L51.8991 24.3742ZM51.8675 24.381L51.8719 24.38L50.235 16.5493L50.2305 16.5502L51.8675 24.381ZM48.3783 27.9081C48.5269 26.439 49.8377 24.8052 51.8674 24.381L50.2305 16.5502C45.0454 17.6341 40.9441 21.909 40.4189 27.1033L48.3783 27.9081ZM48.3779 27.9125L48.3783 27.908L40.4189 27.1034L40.4184 27.1079L48.3779 27.9125ZM48.3746 27.944L48.3751 27.9395L40.4213 27.081L40.4208 27.0855L48.3746 27.944ZM50.9736 32.7455C49.1293 31.892 48.1275 30.2331 48.3746 27.9439L40.4208 27.0856C39.8163 32.6864 42.5655 37.6695 47.6137 40.0057L50.9736 32.7455ZM54.0628 35.6653C53.5992 34.8281 52.6124 33.4867 50.9424 32.7312L47.6449 40.02C47.3785 39.8994 47.2365 39.7625 47.1898 39.714C47.1415 39.6638 47.1054 39.6152 47.0639 39.5404L54.0628 35.6653ZM54.0654 35.67L54.0629 35.6655L47.0638 39.5402L47.0663 39.5448L54.0654 35.67ZM54.0826 35.7014L54.0801 35.6969L47.0516 39.5179L47.0541 39.5225L54.0826 35.7014ZM56.2587 39.7879C55.5531 38.4478 54.8267 37.0703 54.0826 35.7015L47.054 39.5224C47.7694 40.8383 48.4726 42.1717 49.1799 43.515L56.2587 39.7879ZM57.6756 43.6454L57.6758 43.6449L50.507 40.0942L50.5068 40.0946L57.6756 43.6454ZM57.6762 43.6442L57.6763 43.6439L50.5075 40.0932L50.5073 40.0935L57.6762 43.6442Z" fill="#FABE12" mask="url(#path-3-inside-1_1_78)"/>
<path d="M111.167 45.8298C110.796 45.8298 110.596 45.8298 110.397 45.8298C107.515 45.8298 104.633 45.8298 101.751 45.8298C101.323 45.8298 101.066 45.7137 100.781 45.3655C98.5551 42.3478 96.3295 39.3301 94.0753 36.3414C93.9612 36.1673 93.8185 36.0223 93.6473 35.8191C93.5047 35.9932 93.362 36.1673 93.2479 36.3124C90.9937 39.3301 88.7395 42.3478 86.5139 45.3945C86.2571 45.7137 86.0288 45.8588 85.6008 45.8588C82.6904 45.8297 79.7514 45.8588 76.841 45.8588C76.6698 45.8588 76.4986 45.8298 76.1562 45.8298C80.3506 40.5488 84.4595 35.3839 88.6254 30.161C84.06 24.4158 79.5232 18.6996 74.8722 12.8383C75.2146 12.8093 75.4143 12.7803 75.6141 12.7803C78.496 12.7803 81.3779 12.7803 84.2598 12.7803C84.7163 12.7803 85.0016 12.9253 85.2584 13.3025C87.9406 16.8715 90.6228 20.4405 93.3049 24.0095C93.3905 24.1256 93.5047 24.2417 93.6473 24.4158C94.6745 23.052 95.6732 21.7463 96.6719 20.4115C98.4695 18.0322 100.267 15.6238 102.065 13.2445C102.236 13.0414 102.55 12.8093 102.778 12.8093C105.831 12.7803 108.913 12.7803 111.966 12.7803C112.052 12.7803 112.137 12.8093 112.308 12.8383C112.137 13.0704 112.023 13.2735 111.88 13.4476C107.572 18.8737 103.263 24.2997 98.9546 29.6967C98.6978 30.0449 98.6692 30.219 98.9546 30.5672C102.864 35.4419 106.744 40.3457 110.625 45.2204C110.853 45.3655 110.967 45.5396 111.167 45.8298Z" fill="white"/>
<path d="M116.053 45.8588C116.053 34.8133 116.053 23.8258 116.053 12.7803C118.818 12.7803 121.523 12.7803 124.289 12.7803C124.289 23.8258 124.289 34.8133 124.289 45.8588C121.523 45.8588 118.818 45.8588 116.053 45.8588Z" fill="white"/>
<path d="M132.906 16.0599H141.192V41.6948C141.192 43.9829 139.337 45.8377 137.049 45.8377C134.761 45.8377 132.906 43.9829 132.906 41.6948V16.0599Z" fill="#FABE12"/>
<path d="M170.816 0.334581C173.126 0.334581 174.999 2.20705 174.999 4.51686C174.999 6.82666 173.126 8.69913 170.816 8.69913L137.088 8.69913C134.779 8.69913 132.906 6.82666 132.906 4.51685C132.906 2.20705 134.779 0.33458 137.088 0.33458L170.816 0.334581Z" fill="#FABE12"/>
<path d="M156.233 16.0599C158.543 16.0599 160.415 17.9324 160.415 20.2422C160.415 22.552 158.543 24.4245 156.233 24.4245L137.088 24.4245C134.779 24.4245 132.906 22.552 132.906 20.2422C132.906 17.9324 134.779 16.0599 137.088 16.0599L156.233 16.0599Z" fill="#FABE12"/>
<path d="M139.535 41.99C139.535 43.3759 138.422 44.4994 137.049 44.4994C135.676 44.4994 134.563 43.3759 134.563 41.99C134.563 40.6042 135.676 39.4807 137.049 39.4807C138.422 39.4807 139.535 40.6042 139.535 41.99Z" fill="#000606"/>
<path d="M20 63.7237V55.197H25.5082V56.2182H21.2782V58.7898H25.0338V59.7987H21.2782V63.7237H20ZM32.5746 63.7237L32.1529 62.641L31.7444 61.5459H27.6067L26.7765 63.7237H25.4456L26.4339 61.226L27.33 59.0359L28.2129 57.0672L29.1221 55.197H30.2949L31.2042 57.0672L32.0739 59.0359L32.9831 61.226L33.9714 63.7237H32.5746ZM31.3755 60.5616L30.5321 58.4945L29.6756 56.5627L28.7927 58.4945L27.9757 60.5616H31.3755ZM37.5392 62.8748C38.8734 62.8748 39.5422 62.4487 39.5422 61.5951C39.5504 61.3617 39.4863 61.131 39.3577 60.9307C39.2424 60.7415 39.0859 60.5816 38.8833 60.4508C38.6678 60.3045 38.4331 60.1846 38.1849 60.094L37.3679 59.7987C37.0449 59.6962 36.7281 59.577 36.4191 59.4419C36.1226 59.3035 35.8591 59.142 35.6417 58.962C35.4226 58.7729 35.2463 58.5514 35.1146 58.2976C34.991 58.0438 34.9301 57.7362 34.9301 57.3748C34.9301 56.6289 35.2019 56.046 35.7471 55.6276C36.2923 55.2093 37.0434 55.0001 38.0004 55.0001C38.5539 55.0001 39.0546 55.057 39.5027 55.1724C39.9589 55.28 40.2933 55.3984 40.5042 55.5292L40.0957 56.5012C39.9112 56.3935 39.6344 56.292 39.2655 56.1936C38.855 56.0804 38.4284 56.0265 38.0004 56.0336C37.7697 56.032 37.5395 56.0567 37.3152 56.1075C37.1044 56.1567 36.9199 56.2305 36.7618 56.3289C36.6044 56.4267 36.4736 56.5573 36.3796 56.7104C36.2923 56.858 36.2478 57.0334 36.2478 57.2395C36.2405 57.4408 36.2905 57.6404 36.3928 57.8177C36.4916 57.9715 36.6234 58.113 36.8013 58.2361C36.9775 58.3514 37.1801 58.4576 37.4075 58.556L38.1849 58.8513L39.2655 59.2942C39.5999 59.4419 39.8848 59.6172 40.122 59.8233C40.3691 60.0279 40.5569 60.274 40.6886 60.5616C40.8204 60.8384 40.8863 61.1814 40.8863 61.5828C40.8863 62.3288 40.5898 62.9055 40.0034 63.3054C39.4236 63.7053 38.6033 63.9083 37.5392 63.9083C37.1768 63.9083 36.8474 63.8837 36.5377 63.8345L35.7339 63.6868L35.1146 63.49L34.7192 63.3054L35.1014 62.3211C35.304 62.4287 35.612 62.5472 36.0238 62.6779C36.4356 62.8086 36.9413 62.8748 37.5392 62.8748ZM48.5325 55.197V56.2305H45.6598V63.7237H44.3816V56.2305H41.5089V55.197H48.5325ZM50.104 62.3211C50.1122 62.3872 50.1171 62.4518 50.1171 62.5179V62.7025C50.117 63.22 50.0325 63.7344 49.8668 64.2282C49.7095 64.7348 49.4883 65.2222 49.2079 65.6801L48.2591 65.3971C48.4736 64.9939 48.6202 64.5623 48.694 64.1175C48.7648 63.6914 48.7994 63.2869 48.7994 62.9117L48.7862 62.6041L48.773 62.3211H50.104ZM54.8149 59.4542C54.8149 58.7236 54.9302 58.0807 55.1575 57.5224C55.3947 56.9641 55.711 56.5012 56.1063 56.1321C56.5099 55.7553 56.976 55.4707 57.5031 55.2831C58.0466 55.0931 58.6227 54.9972 59.203 55.0001C59.7706 54.9965 60.3338 55.0925 60.8634 55.2831C61.3852 55.4687 61.8574 55.7585 62.247 56.1321C62.6608 56.5284 62.9797 57.0023 63.1826 57.5224C63.4198 58.0807 63.5384 58.7221 63.5384 59.4542C63.5384 60.094 63.4511 60.6646 63.2748 61.1645C63.1149 61.6371 62.8649 62.0789 62.5369 62.4687C62.2289 62.8301 61.8649 63.1254 61.4432 63.3546C61.0314 63.5761 60.5866 63.7283 60.1123 63.8099C60.1205 63.999 60.2111 64.1636 60.3758 64.302C60.552 64.4497 60.7711 64.5727 61.0347 64.6712C61.2982 64.7696 61.5947 64.8511 61.9176 64.9172C62.2404 64.9834 62.5682 65.0326 62.8927 65.0649L62.5896 66C62.1333 65.9431 61.6935 65.8647 61.2719 65.7662C60.8601 65.6739 60.4812 65.5509 60.1386 65.3971C59.8042 65.2433 59.5242 65.0403 59.2952 64.7942C59.0646 64.5558 58.9131 64.2559 58.834 63.896C58.2926 63.866 57.7614 63.7451 57.2659 63.5392C56.7718 63.3239 56.3484 63.0347 55.9877 62.6656C55.6253 62.2888 55.342 61.835 55.1312 61.2998C54.9203 60.7646 54.8149 60.1509 54.8149 59.4542ZM56.159 59.4542C56.159 59.971 56.2298 60.4431 56.3698 60.8692C56.5099 61.2875 56.7075 61.6443 56.9628 61.9396C57.2264 62.2349 57.5426 62.4626 57.9116 62.6287C58.311 62.7886 58.7421 62.8683 59.1766 62.8624C59.6428 62.8624 60.0595 62.7855 60.4285 62.6287C60.7923 62.4682 61.1123 62.2326 61.3641 61.9396C61.6277 61.6443 61.8303 61.2875 61.9703 60.8692C62.1158 60.41 62.1868 59.933 62.1811 59.4542C62.1875 58.9794 62.1164 58.5064 61.9703 58.0515C61.8303 57.6255 61.6277 57.2641 61.3641 56.9688C61.1142 56.677 60.7935 56.4451 60.4285 56.292C60.0595 56.1275 59.6428 56.046 59.1766 56.046C58.7407 56.0401 58.3088 56.1242 57.9116 56.292C57.5441 56.4469 57.2195 56.6784 56.9628 56.9688C56.7075 57.2641 56.5099 57.6255 56.3698 58.0515C56.2298 58.4699 56.159 58.9374 56.159 59.4542ZM68.839 63.9083C68.2411 63.9083 67.7239 63.8222 67.2841 63.6499C66.8443 63.4777 66.4852 63.2439 66.2035 62.9486C65.9235 62.6456 65.7094 62.2872 65.571 61.8781C65.4392 61.4675 65.3734 61.0245 65.3734 60.5493V55.197H66.6351V60.4139C66.6351 61.2675 66.8377 61.8858 67.2413 62.2718C67.6448 62.6579 68.1719 62.8501 68.8226 62.8501C69.1471 62.8501 69.4419 62.804 69.7055 62.7148C69.9721 62.62 70.2113 62.4683 70.4039 62.2718C70.5966 62.075 70.7465 61.8258 70.8519 61.5213C70.9573 61.2091 71.01 60.84 71.01 60.4139V55.197H72.2882V60.5493C72.2923 60.9998 72.2212 61.4481 72.0774 61.8781C71.9456 62.2888 71.7348 62.6471 71.4449 62.9486C71.1649 63.2439 70.8025 63.4777 70.3643 63.6499C69.9361 63.8222 69.4205 63.9083 68.8226 63.9083H68.839ZM80.4846 63.7237L80.063 62.641L79.6544 61.5459H75.5167L74.6865 63.7237H73.3556L74.3439 61.226L75.24 59.0359L76.1229 57.0672L77.0321 55.197H78.2049L79.1142 57.0672L79.9839 59.0359L80.8931 61.226L81.8814 63.7237H80.4846ZM79.2855 60.5616L78.4421 58.4945L77.5856 56.5627L76.7027 58.4945L75.8857 60.5616H79.2855ZM88.6168 62.6902V63.7237H83.1218V55.197H84.4V62.6902H88.6168ZM89.9559 55.197H91.2342V63.7237H89.9559V55.197ZM99.5953 55.197V56.2305H96.7226V63.7237H95.4444V56.2305H92.5717V55.197H99.5953ZM103.504 63.7237V60.3032L101.791 57.707L100.276 55.197H101.778L102.898 57.2518L104.176 59.245L105.441 57.2518L106.574 55.197H107.998L106.482 57.707L104.782 60.2786V63.7237H103.504ZM109.556 62.3211C109.564 62.3872 109.569 62.4518 109.569 62.5179V62.7025C109.569 63.22 109.484 63.7344 109.319 64.2282C109.16 64.7357 108.94 65.2202 108.66 65.6801L107.711 65.3971C107.925 64.9939 108.072 64.5623 108.146 64.1175C108.217 63.6914 108.251 63.2869 108.251 62.9117L108.238 62.6041L108.225 62.3211H109.556ZM118.563 63.9083C117.964 63.9156 117.369 63.8153 116.81 63.613C116.283 63.4161 115.83 63.1285 115.453 62.7517C115.076 62.3749 114.781 61.9104 114.57 61.3613C114.367 60.803 114.267 60.1678 114.267 59.4542C114.267 58.7406 114.382 58.1084 114.609 57.5594C114.822 57.0374 115.145 56.5604 115.558 56.1567C115.949 55.782 116.421 55.4885 116.942 55.2954C117.479 55.0968 118.051 54.9965 118.629 55.0001C119.007 55.0001 119.345 55.0247 119.643 55.0739C119.951 55.1231 120.215 55.1816 120.434 55.2462C120.664 55.3123 120.846 55.3769 120.987 55.4431L121.277 55.5907L120.908 56.575C120.829 56.5258 120.715 56.472 120.566 56.4151L120.052 56.2428C119.867 56.1859 119.661 56.1398 119.432 56.1075C119.211 56.0663 118.986 56.0456 118.76 56.046C118.313 56.0395 117.869 56.1191 117.456 56.2797C117.075 56.4316 116.737 56.6632 116.467 56.9565C116.196 57.2518 115.985 57.6132 115.835 58.0392C115.688 58.4982 115.617 58.9753 115.624 59.4542C115.624 59.9617 115.685 60.4262 115.809 60.8446C115.926 61.2367 116.123 61.6042 116.388 61.9273C116.643 62.2226 116.968 62.4585 117.337 62.6164C117.724 62.7809 118.172 62.8624 118.681 62.8624C119.269 62.8624 119.757 62.8055 120.144 62.6902C120.531 62.5748 120.819 62.4749 121.014 62.3826L121.343 63.3669C121.282 63.4084 121.172 63.4592 121.014 63.5269C120.82 63.5948 120.622 63.6523 120.421 63.6991C120.147 63.763 119.87 63.8123 119.59 63.8468C119.25 63.8893 118.906 63.9099 118.563 63.9083ZM128.553 55.197H129.831V63.7237H128.569V59.7864H124.102V63.7237H122.824V55.197H124.102V58.7529H128.569V55.197H128.553ZM132.099 63.7237V55.197H137.673V56.2182H133.379V58.7529H137.2V59.7495H133.379V62.7025H138.004V63.7237H132.101H132.099ZM145.947 63.7237L145.525 62.641L145.117 61.5459H140.979L140.149 63.7237H138.818L139.806 61.226L140.702 59.0359L141.585 57.0672L142.495 55.197H143.667L144.577 57.0672L145.446 59.0359L146.356 61.226L147.344 63.7237H145.947ZM144.748 60.5616L143.888 58.4945L143.032 56.5627L142.149 58.4945L141.332 60.5616H144.731H144.748ZM151.007 55.1108C152.289 55.1108 153.274 55.3415 153.959 55.7999C154.651 56.2505 155 56.9272 155 57.8301C155 58.3222 154.901 58.7452 154.708 59.0974C154.523 59.4437 154.242 59.7369 153.893 59.9464C153.497 60.1756 153.059 60.3342 152.602 60.4139C152.108 60.5124 151.515 60.5616 150.875 60.5616H149.861V63.7237H148.583V55.32C148.976 55.2333 149.378 55.1798 149.782 55.1601L151.007 55.1108ZM151.113 56.1567L149.861 56.1936V59.5403H150.823C151.219 59.543 151.616 59.5183 152.009 59.4665C152.36 59.4096 152.654 59.3189 152.892 59.1958C153.129 59.072 153.326 58.8888 153.458 58.6667C153.59 58.4453 153.656 58.1623 153.656 57.8177C153.656 57.4902 153.585 57.2179 153.445 57.0057C153.305 56.7934 153.129 56.6242 152.892 56.5012C152.661 56.3705 152.394 56.2797 152.088 56.2305C151.781 56.1813 151.455 56.1567 151.113 56.1567Z" fill="#F3F3F3"/>
</svg>
